# xmcd CD database file
#
# Track frame offsets:
#	150
#	18244
#	43047
#	54473
#	103746
#	121148
#	143230
#	172727
#	187028
#	210694
#	242268
#	263338
#	280718
#	296135
#	316359
#
# Disc length: 4597 seconds
#
# Revision: 0
# Processed by: cddbd v1.5.2PL0 Copyright (c) Steve Scherf et al.
# Submitted via: CDex 1.51
#
DISCID=ce11f30f
DTITLE=Giancarlo Schiaffini et al. - Giancarlo Schiaffini 
DYEAR=2007
DGENRE=Jazz
TTITLE0=Ouverture
TTITLE1=Brozziman
TTITLE2=Pezzo Tanto Per Dire
TTITLE3=St.James Infirmary
TTITLE4=Vera(excerpt)
TTITLE5=Aux Champignons
TTITLE6=Ko Bird Ko
TTITLE7=Redintegrazione
TTITLE8=Loveski
TTITLE9=Litania Sibilante
TTITLE10=My Funny Valentine
TTITLE11=You Are What This Day Is All About
TTITLE12=La Grande Porta Delle Pulci (excerpt)
TTITLE13=Pisa Quintet 2
TTITLE14=Vecchio Cello
EXTD=YEAR: 2007
EXTT0=
EXTT1=
EXTT2=
EXTT3=
EXTT4=
EXTT5=
EXTT6=
EXTT7=
EXTT8=
EXTT9=
EXTT10=
EXTT11=
EXTT12=
EXTT13=
EXTT14=
PLAYORDER=
